<svg width="223" height="60" viewBox="0 0 223 60" fill="none" xmlns="http://www.w3.org/2000/svg">
<g id="_&#208;&#160;&#208;&#129;&#208;&#160;&#194;&#176;&#208;&#161;&#208;&#130;_2" clip-path="url(#clip0_3_309)">
<g id="Group">
<path id="Vector" d="M0.954138 2.88631H21.7066V59.9999H29.8466V2.88631H50.5991L51.5235 -7.62939e-05H0L0.954138 2.88631Z" fill="#60AFA9"/>
<path id="Vector_2" d="M77.9412 26.1596L101.377 0.182159H97.4414L95.2648 2.63866L67.0879 33.8362V0.182159H63.7186H63.7484H58.9181L58.8883 3.43702V59.9365H67.0879V38.6571L72.4847 32.2702L73.8861 33.8976L97.0836 59.7523L97.2923 59.9979H108.295L77.9412 26.1596Z" fill="#60AFA9"/>
</g>
<path id="Vector_3" d="M139.662 36.9719L133.758 52.018H144.552L147.474 59.6639H151.529L142.882 36.9719H139.662ZM136.203 50.6976L140.169 40.4418L144.045 50.6669H136.173L136.203 50.6976Z" fill="#6D6D6C"/>
<path id="Vector_4" d="M123.263 37.0018H119.536V59.7245H137.754L138.917 57.8821H123.263V37.0018Z" fill="#6D6D6C"/>
<path id="Vector_5" d="M166.587 46.6442C166.169 46.4907 165.782 46.3372 165.394 46.2143C162.233 45.0782 160.713 44.4334 160.325 42.7138C160.206 42.1611 160.295 40.9943 161.041 40.0117C161.607 39.2747 162.77 38.3842 165.096 38.3842C167.422 38.3842 169.479 39.5511 170.91 41.7005L171.178 42.0997L173.564 41.1785L173.087 40.503C171.328 38.0465 168.555 36.7568 165.036 36.7568C159.58 36.7568 157.045 40.4108 157.045 42.8673C157.045 47.0127 160.981 48.4559 164.171 49.6227L165.066 49.9605C168.853 51.373 170.821 52.202 170.821 54.2901C170.821 56.5009 168.823 58.1591 166.169 58.1591C162.74 58.1591 160.653 56.8387 159.937 54.2594L159.788 53.7066L157.254 54.2287L157.463 54.9042C158.447 58.1898 161.339 60.0014 165.632 60.0014C169.926 60.0014 174.16 58.4047 174.16 53.983C174.16 49.9605 169.866 47.8725 166.646 46.6749L166.587 46.6442Z" fill="#6D6D6C"/>
<path id="Vector_6" d="M182.091 37.0018V59.6937H196.284L197.686 57.79H185.759V47.6569H196.105L197.536 45.8145H185.759V38.8442H196.254L198.014 37.0018H182.091Z" fill="#6D6D6C"/>
<path id="Vector_7" d="M218.617 53.3367L218.975 53.1525C221.569 51.7093 223 49.0993 223 45.8137V45.568C223 41.0235 218.498 37.0317 213.369 37.0317H204.633V59.6929H208.36V54.35H213.369C213.548 54.35 213.757 54.35 213.965 54.35C214.502 54.35 215.009 54.6264 215.277 55.087L218.14 59.6929H222.732L218.647 53.3367H218.617ZM213.339 52.784H208.33V38.567H213.339C216.858 38.567 219.243 41.3613 219.243 45.5373V45.8137C219.243 49.9897 216.888 52.784 213.339 52.784Z" fill="#6D6D6C"/>
</g>
<defs>
<clipPath id="clip0_3_309">
<rect width="223" height="60" fill="white"/>
</clipPath>
</defs>
</svg>
