<svg width="137" height="36" viewBox="0 0 137 36" fill="none" xmlns="http://www.w3.org/2000/svg">
<g id="_&#208;&#160;&#208;&#129;&#208;&#160;&#194;&#176;&#208;&#161;&#208;&#130;_2" clip-path="url(#clip0_12_580)">
<g id="Group">
<path id="Vector" d="M0.586175 1.73183H13.3355V36H18.3363V1.73183H31.0856L31.6534 0H0L0.586175 1.73183Z" fill="white"/>
<path id="Vector_2" d="M47.8832 15.6959L62.2811 0.109375H59.8631L58.5259 1.58327L41.2154 20.3018V0.109375H39.1455H39.1638H36.1963L36.178 2.06229V35.962H41.2154V23.1943L44.531 19.3622L45.3919 20.3386L59.6433 35.8514L59.7715 35.9988H66.5308L47.8832 15.6959Z" fill="white"/>
</g>
<path id="Vector_3" d="M85.8013 22.1826L82.1744 31.2103H88.8055L90.6006 35.7978H93.0919L87.7797 22.1826H85.8013ZM83.6764 30.418L86.1127 24.2645L88.4941 30.3996H83.6581L83.6764 30.418Z" fill="white"/>
<path id="Vector_4" d="M75.7265 22.2012H73.4367V35.8347H84.629L85.3434 34.7293H75.7265V22.2012Z" fill="white"/>
<path id="Vector_5" d="M102.342 27.9862C102.086 27.894 101.848 27.8019 101.61 27.7282C99.668 27.0465 98.7338 26.6596 98.4957 25.6279C98.4224 25.2963 98.4774 24.5962 98.9353 24.0066C99.2834 23.5645 99.9978 23.0302 101.427 23.0302C102.855 23.0302 104.119 23.7303 104.999 25.0199L105.163 25.2594L106.629 24.7067L106.336 24.3014C105.255 22.8275 103.551 22.0537 101.39 22.0537C98.0377 22.0537 96.4807 24.2461 96.4807 25.72C96.4807 28.2072 98.8987 29.0732 100.859 29.7733L101.408 29.9759C103.735 30.8234 104.944 31.3209 104.944 32.5737C104.944 33.9002 103.716 34.8951 102.086 34.8951C99.9794 34.8951 98.6972 34.1028 98.2576 32.5552L98.166 32.2236L96.6089 32.5368L96.7372 32.9421C97.3417 34.9135 99.1185 36.0005 101.756 36.0005C104.394 36.0005 106.995 35.0425 106.995 32.3894C106.995 29.9759 104.357 28.7231 102.379 28.0046L102.342 27.9862Z" fill="white"/>
<path id="Vector_6" d="M111.868 22.2012V35.8163H120.587L121.448 34.674H114.121V28.5942H120.477L121.356 27.4888H114.121V23.3066H120.569L121.65 22.2012H111.868Z" fill="white"/>
<path id="Vector_7" d="M134.307 32.0018L134.527 31.8912C136.121 31.0253 137 29.4593 137 27.4879V27.3406C137 24.6138 134.234 22.2188 131.083 22.2188H125.716V35.8155H128.006V32.6097H131.083C131.193 32.6097 131.321 32.6097 131.45 32.6097C131.779 32.6097 132.091 32.7756 132.256 33.0519L134.014 35.8155H136.835L134.326 32.0018H134.307ZM131.065 31.6701H127.988V23.1399H131.065C133.226 23.1399 134.692 24.8165 134.692 27.3221V27.4879C134.692 29.9936 133.245 31.6701 131.065 31.6701Z" fill="white"/>
</g>
<defs>
<clipPath id="clip0_12_580">
<rect width="137" height="36" fill="white"/>
</clipPath>
</defs>
</svg>
